Coordinates
version=1
nRows=14
nColumns=40
inDegrees=yes

Units are S.I. units (second, meters, Newtons, ...)
Angles are in degrees.

endheader
time	pelvis_tilt	pelvis_list	pelvis_rotation	pelvis_tx	pelvis_ty	pelvis_tz	hip_flexion_r	hip_adduction_r	hip_rotation_r	knee_angle_r	knee_angle_r_beta	ankle_angle_r	subtalar_angle_r	mtp_angle_r	hip_flexion_l	hip_adduction_l	hip_rotation_l	knee_angle_l	knee_angle_l_beta	ankle_angle_l	subtalar_angle_l	mtp_angle_l	lumbar_extension	lumbar_bending	lumbar_rotation	arm_flex_r	arm_add_r	arm_rot_r	elbow_flex_r	pro_sup_r	wrist_flex_r	wrist_dev_r	arm_flex_l	arm_add_l	arm_rot_l	elbow_flex_l	pro_sup_l	wrist_flex_l	wrist_dev_l
     45.30000000	     -9.25267667	     -5.33533579	     -2.74871303	      0.94243588	      0.92733345	      0.44118929	     42.14389668	     -5.08151615	     -5.24568548	     72.46418257	     72.46418257	     -4.51833174	    -15.81876931	      0.84976359	     16.33537840	     -6.21275194	     -5.56268327	     22.03283382	     22.03283382	     17.16888001	     -6.48586371	      2.82864218	    -12.53415507	      5.90847123	      3.17124515	     -2.16553667	    -14.32726871	     -2.16981495	     26.89981716	     46.75390279	      0.00000000	      0.00000000	     17.95930414	    -16.32738109	     -3.06615897	     80.49908911	     47.20259773	      0.00000000	      0.00000000
     45.31171429	     -9.20092119	     -5.11479625	     -2.67806323	      0.94169307	      0.92771793	      0.44138746	     42.92338680	     -5.09949106	     -5.27552878	     70.93770867	     70.93770867	     -4.12211773	    -14.93365318	      0.52205378	     15.33838327	     -6.01047798	     -5.97532396	     21.27253646	     21.27253646	     17.38677267	     -5.60743249	      2.58624122	    -12.55944096	      5.67260342	      2.94388604	     -3.72447173	    -14.40793721	     -2.05298741	     26.26204247	     46.75147214	      0.00000000	      0.00000000	     19.37652699	    -16.71857915	     -3.09446730	     82.33917296	     47.25638594	      0.00000000	      0.00000000
     45.32342857	     -9.14703475	     -4.86476439	     -2.58811185	      0.94102115	      0.92806405	      0.44165028	     43.51778412	     -5.14548646	     -5.33518762	     69.00873761	     69.00873761	     -3.70288637	    -14.02953881	      0.29177331	     14.33098918	     -5.78550958	     -6.45682721	     20.48509018	     20.48509018	     17.51231972	     -4.65933211	      2.33423952	    -12.60319085	      5.46619414	      2.72426995	     -5.33661820	    -14.47142777	     -1.95340186	     25.86514845	     46.73869314	      0.00000000	      0.00000000	     20.74887282	    -17.11136473	     -3.12177474	     84.26412910	     47.31219499	      0.00000000	      0.00000000
     45.33514286	     -9.10174073	     -4.60019285	     -2.51436819	      0.94039740	      0.92826473	      0.44212465	     43.96324943	     -5.16067783	     -5.39747726	     66.70551263	     66.70551263	     -3.33063938	    -13.21185144	      0.14926394	     13.35089231	     -5.56937340	     -6.97523348	     19.74971524	     19.74971524	     17.64341232	     -3.64374529	      1.92695164	    -12.64044159	      5.17846305	      2.48310290	     -6.98113964	    -14.54432205	     -1.86407431	     25.88091008	     46.70535786	      0.00000000	      0.00000000	     21.97587215	    -17.58910778	     -3.09782810	     86.31743066	     47.37101152	      0.00000000	      0.00000000
     45.34685714	     -9.08599404	     -4.32160084	     -2.42840354	      0.93985922	      0.92829534	      0.44270296	     44.24407887	     -5.19021322	     -5.51581205	     64.01759348	     64.01759348	     -2.95797202	    -12.44552623	      0.06128092	     12.39294564	     -5.33699804	     -7.47566777	     18.99084740	     18.99084740	     17.73096134	     -2.62145892	      1.46521053	    -12.64890514	      4.87417094	      2.20488447	     -8.66491838	    -14.61130789	     -1.77994173	     26.25982698	     46.65409690	      0.00000000	      0.00000000	     23.13801737	    -18.04508939	     -3.10101575	     88.27379454	     47.43300086	      0.00000000	      0.00000000
     45.35857143	     -9.09333571	     -4.03941236	     -2.32370598	      0.93938916	      0.92819278	      0.44337778	     44.33833851	     -5.21972700	     -5.70522235	     60.92932882	     60.92932882	     -2.54091433	    -11.74628344	      0.01249223	     11.45613530	     -5.08819790	     -7.92152965	     18.22536011	     18.22536011	     17.79693598	     -1.67725871	      1.08945101	    -12.61375321	      4.57875965	      1.92362095	    -10.27224302	    -14.65970046	     -1.71775726	     26.66872729	     46.60590876	      0.00000000	      0.00000000	     24.28745502	    -18.42047589	     -3.15653580	     89.92406402	     47.49183318	      0.00000000	      0.00000000
     45.37028571	     -9.11089992	     -3.78020092	     -2.20983061	      0.93900161	      0.92776971	      0.44423214	     44.23523692	     -5.19852478	     -5.95939054	     57.44430790	     57.44430790	     -2.35547200	    -11.32523674	     -0.60475878	     10.61022232	     -4.91172171	     -8.44940069	     17.61530732	     17.61530732	     17.72232419	     -0.61058879	      0.00806607	    -12.57622780	      4.29171893	      1.62098319	    -12.43282006	    -14.88019119	     -1.43464374	     28.92216987	     46.43431738	      0.00000000	      0.00000000	     25.29084172	    -18.95188722	     -2.97712990	     91.77117967	     47.58484679	      0.00000000	      0.00000000
     45.38200000	     -9.19674333	     -3.51367703	     -2.08347547	      0.93875528	      0.92726605	      0.44515721	     43.97350842	     -5.19379871	     -6.32626639	     53.58299903	     53.58299903	     -1.90808329	    -10.70122199	     -0.42100172	      9.75345303	     -4.65536178	     -8.70085478	     16.85464852	     16.85464852	     17.84873813	      0.08308842	     -0.12035157	    -12.37710097	      4.00477084	      1.36908676	    -13.69451334	    -14.85566037	     -1.35354215	     28.84551604	     46.41544652	      0.00000000	      0.00000000	     26.34132580	    -19.10517544	     -3.05511617	     92.78414883	     47.62512802	      0.00000000	      0.00000000
     45.39371429	     -9.21588114	     -3.20097957	     -1.99082335	      0.93869786	      0.92653353	      0.44629059	     43.43982911	     -5.18210319	     -6.71500062	     49.41089276	     49.41089276	     -1.42402298	    -10.08329306	     -0.34165155	      8.81713317	     -4.38975185	     -9.15336842	     16.12702768	     16.12702768	     17.99410628	      1.02559742	     -0.45491677	    -12.27907933	      3.64880111	      1.19396209	    -15.00903513	    -14.80933798	     -1.31487436	     29.17898287	     46.37978554	      0.00000000	      0.00000000	     27.30949554	    -19.36268791	     -2.97826293	     94.08137500	     47.66398141	      0.00000000	      0.00000000
     45.40542857	     -9.31879637	     -2.93080464	     -1.86149248	      0.93873798	      0.92542097	      0.44757964	     42.76216598	     -5.09709291	     -7.22057827	     44.92042151	     44.92042151	     -0.96764667	     -9.47115935	     -0.08633551	      8.03526627	     -4.17659422	     -9.48030583	     15.52907918	     15.52907918	     18.18414636	      1.85081161	     -0.80636271	    -12.05938952	      3.32496908	      0.91509135	    -16.19732641	    -14.75861262	     -1.31421246	     29.52658342	     46.34897860	      0.00000000	      0.00000000	     28.13483401	    -19.66044916	     -2.88990761	     95.11963655	     47.69327476	      0.00000000	      0.00000000
     45.41714286	     -9.34046110	     -2.63625799	     -1.78891271	      0.93911123	      0.92399899	      0.44917004	     41.78526553	     -4.95093661	     -7.73686965	     40.17763516	     40.17763516	     -0.88439701	     -8.92679777	     -0.78637023	      7.14772177	     -4.03193010	    -10.32408418	     14.95666411	     14.95666411	     18.19586205	      3.27671320	     -2.17327967	    -11.95603033	      2.96103734	      0.95742202	    -18.33398861	    -14.86544409	     -1.18963018	     32.56043811	     46.16344801	      0.00000000	      0.00000000	     28.92229903	    -20.09891519	     -2.24296336	     96.52331573	     47.75740204	      0.00000000	      0.00000000
     45.42885714	     -9.40623720	     -2.37131232	     -1.65181118	      0.93970306	      0.92236884	      0.45079518	     40.68330886	     -4.78771062	     -8.40157139	     35.39026735	     35.39026735	     -0.45940810	     -8.07952280	     -0.02352186	      6.27780489	     -3.80590360	    -10.50518056	     14.34150430	     14.34150430	     18.49357614	      3.84787553	     -2.36955841	    -11.67842255	      2.64910793	      0.77186001	    -19.19201749	    -14.74380455	     -1.12544401	     32.55371047	     46.14912801	      0.00000000	      0.00000000	     29.55718835	    -20.24933566	     -2.17275832	     97.15906080	     47.77792023	      0.00000000	      0.00000000
     45.44057143	     -9.42639790	     -2.07101741	     -1.54529892	      0.94064396	      0.92044898	      0.45263612	     39.44245721	     -4.59322163	     -9.03376491	     30.73421760	     30.73421760	     -0.09266996	     -7.05450342	      0.95986744	      5.32341670	     -3.56379650	    -10.80554641	     13.72034461	     13.72034461	     18.82977239	      4.56951030	     -2.65244883	    -11.44040021	      2.29196294	      0.66168969	    -19.97971241	    -14.57299407	     -1.08051443	     32.72019134	     46.12950751	      0.00000000	      0.00000000	     30.07037500	    -20.44437879	     -1.99110924	     97.85543255	     47.79165564	      0.00000000	      0.00000000
     45.45228571	     -9.20837397	     -1.73471126	     -1.46778293	      0.94209130	      0.91853065	      0.45463250	     38.02098899	     -4.48002440	     -9.80037998	     26.64421404	     26.64421404	      0.53356593	     -5.57339216	      2.73847832	      3.98803289	     -3.32229095	    -11.51215861	     12.96091874	     12.96091874	     19.18781373	      5.92217753	     -3.24034976	    -11.46701107	      1.89259542	      0.74220281	    -20.99639860	    -14.45318446	     -1.03923705	     33.61314436	     46.07331671	      0.00000000	      0.00000000	     30.42787120	    -20.75762267	     -1.38260144	     98.85417419	     47.79968262	      0.00000000	      0.00000000
